<mxfile host="Electron" agent="Mozilla/5.0 (Windows NT 10.0; Win64; x64) AppleWebKit/537.36 (KHTML, like Gecko) draw.io/28.1.2 Chrome/138.0.7204.243 Electron/37.4.0 Safari/537.36" version="28.1.2">
  <diagram name="Página-1" id="RfYGEdSGdM2JqX9TC5-E">
    <mxGraphModel dx="1426" dy="859" grid="1" gridSize="10" guides="1" tooltips="1" connect="1" arrows="1" fold="1" page="1" pageScale="1" pageWidth="1920" pageHeight="1200" math="0" shadow="0">
      <root>
        <mxCell id="0" />
        <mxCell id="1" parent="0" />
        <mxCell id="HGXDy03C4Vj8L7ka9ArD-14" value="" style="edgeStyle=orthogonalEdgeStyle;rounded=0;orthogonalLoop=1;jettySize=auto;html=1;entryX=1;entryY=0.5;entryDx=0;entryDy=0;" edge="1" parent="1" source="HGXDy03C4Vj8L7ka9ArD-1" target="HGXDy03C4Vj8L7ka9ArD-12">
          <mxGeometry relative="1" as="geometry">
            <mxPoint x="585" y="392.5" as="targetPoint" />
          </mxGeometry>
        </mxCell>
        <mxCell id="HGXDy03C4Vj8L7ka9ArD-1" value="" style="whiteSpace=wrap;html=1;aspect=fixed;" vertex="1" parent="1">
          <mxGeometry x="760" y="200" width="530" height="530" as="geometry" />
        </mxCell>
        <mxCell id="HGXDy03C4Vj8L7ka9ArD-15" style="edgeStyle=orthogonalEdgeStyle;rounded=0;orthogonalLoop=1;jettySize=auto;html=1;" edge="1" parent="1" source="HGXDy03C4Vj8L7ka9ArD-2" target="HGXDy03C4Vj8L7ka9ArD-12">
          <mxGeometry relative="1" as="geometry" />
        </mxCell>
        <mxCell id="HGXDy03C4Vj8L7ka9ArD-18" value="" style="edgeStyle=orthogonalEdgeStyle;rounded=0;orthogonalLoop=1;jettySize=auto;html=1;" edge="1" parent="1" source="HGXDy03C4Vj8L7ka9ArD-2" target="HGXDy03C4Vj8L7ka9ArD-3">
          <mxGeometry relative="1" as="geometry" />
        </mxCell>
        <mxCell id="HGXDy03C4Vj8L7ka9ArD-19" value="" style="edgeStyle=orthogonalEdgeStyle;rounded=0;orthogonalLoop=1;jettySize=auto;html=1;" edge="1" parent="1" source="HGXDy03C4Vj8L7ka9ArD-2" target="HGXDy03C4Vj8L7ka9ArD-4">
          <mxGeometry relative="1" as="geometry" />
        </mxCell>
        <mxCell id="HGXDy03C4Vj8L7ka9ArD-20" value="" style="edgeStyle=orthogonalEdgeStyle;rounded=0;orthogonalLoop=1;jettySize=auto;html=1;" edge="1" parent="1" source="HGXDy03C4Vj8L7ka9ArD-2" target="HGXDy03C4Vj8L7ka9ArD-6">
          <mxGeometry relative="1" as="geometry" />
        </mxCell>
        <mxCell id="HGXDy03C4Vj8L7ka9ArD-21" value="" style="edgeStyle=orthogonalEdgeStyle;rounded=0;orthogonalLoop=1;jettySize=auto;html=1;" edge="1" parent="1" source="HGXDy03C4Vj8L7ka9ArD-2" target="HGXDy03C4Vj8L7ka9ArD-4">
          <mxGeometry relative="1" as="geometry" />
        </mxCell>
        <mxCell id="HGXDy03C4Vj8L7ka9ArD-23" style="edgeStyle=orthogonalEdgeStyle;rounded=0;orthogonalLoop=1;jettySize=auto;html=1;entryX=0.5;entryY=0;entryDx=0;entryDy=0;" edge="1" parent="1" source="HGXDy03C4Vj8L7ka9ArD-2" target="HGXDy03C4Vj8L7ka9ArD-7">
          <mxGeometry relative="1" as="geometry" />
        </mxCell>
        <mxCell id="HGXDy03C4Vj8L7ka9ArD-24" style="edgeStyle=orthogonalEdgeStyle;rounded=0;orthogonalLoop=1;jettySize=auto;html=1;entryX=0.5;entryY=1;entryDx=0;entryDy=0;" edge="1" parent="1" source="HGXDy03C4Vj8L7ka9ArD-2" target="HGXDy03C4Vj8L7ka9ArD-5">
          <mxGeometry relative="1" as="geometry" />
        </mxCell>
        <mxCell id="HGXDy03C4Vj8L7ka9ArD-2" value="" style="rounded=1;whiteSpace=wrap;html=1;arcSize=50;" vertex="1" parent="1">
          <mxGeometry x="780" y="395" width="220" height="140" as="geometry" />
        </mxCell>
        <mxCell id="HGXDy03C4Vj8L7ka9ArD-3" value="" style="rounded=1;whiteSpace=wrap;html=1;" vertex="1" parent="1">
          <mxGeometry x="780" y="220" width="220" height="140" as="geometry" />
        </mxCell>
        <mxCell id="HGXDy03C4Vj8L7ka9ArD-4" value="" style="rounded=1;whiteSpace=wrap;html=1;" vertex="1" parent="1">
          <mxGeometry x="780" y="570" width="220" height="140" as="geometry" />
        </mxCell>
        <mxCell id="HGXDy03C4Vj8L7ka9ArD-5" value="" style="rounded=1;whiteSpace=wrap;html=1;" vertex="1" parent="1">
          <mxGeometry x="1030" y="220" width="220" height="140" as="geometry" />
        </mxCell>
        <mxCell id="HGXDy03C4Vj8L7ka9ArD-6" value="" style="rounded=1;whiteSpace=wrap;html=1;" vertex="1" parent="1">
          <mxGeometry x="1030" y="395" width="220" height="140" as="geometry" />
        </mxCell>
        <mxCell id="HGXDy03C4Vj8L7ka9ArD-7" value="" style="rounded=1;whiteSpace=wrap;html=1;" vertex="1" parent="1">
          <mxGeometry x="1030" y="570" width="220" height="140" as="geometry" />
        </mxCell>
        <mxCell id="HGXDy03C4Vj8L7ka9ArD-12" value="&lt;font style=&quot;font-size: 22px;&quot;&gt;El atacante encuentra y explota con éxito una vulnerabilidad SSRF&lt;/font&gt;" style="text;html=1;align=center;verticalAlign=middle;whiteSpace=wrap;rounded=0;" vertex="1" parent="1">
          <mxGeometry x="480" y="392.5" width="227.5" height="145" as="geometry" />
        </mxCell>
        <mxCell id="HGXDy03C4Vj8L7ka9ArD-16" value="&lt;font style=&quot;font-size: 22px;&quot;&gt;Servicio vulnerado&lt;/font&gt;" style="text;html=1;align=center;verticalAlign=middle;whiteSpace=wrap;rounded=0;" vertex="1" parent="1">
          <mxGeometry x="825" y="430" width="130" height="70" as="geometry" />
        </mxCell>
        <mxCell id="HGXDy03C4Vj8L7ka9ArD-25" value="&lt;font style=&quot;font-size: 22px;&quot;&gt;Pivote, exfiltración, reconocimiento o incluso hallazgo de nuevas vulnerabilidades moviéndose dentro del perímetro de confianza de la organización&lt;/font&gt;" style="text;html=1;align=left;verticalAlign=middle;whiteSpace=wrap;rounded=0;" vertex="1" parent="1">
          <mxGeometry x="760" y="100" width="540" height="100" as="geometry" />
        </mxCell>
      </root>
    </mxGraphModel>
  </diagram>
</mxfile>
